
        <svg xmlns="http://www.w3.org/2000/svg" xmlns:xlink="http://www.w3.org/1999/xlink" version="1.1" width="2962.962962962963" height="3185.185185185185" viewBox="0 0 2962.962962962963 3185.185185185185">
			
			<g transform="scale(9.25925925925926) translate(10, 10)">
				<defs id="SvgjsDefs4380"/><g id="SvgjsG4381" featureKey="rootContainer" transform="matrix(1,0,0,1,0,0)" fill="#fff"><path xmlns="http://www.w3.org/2000/svg" fill-rule="evenodd" d=" M0,0 H300 V324 H0,0 z M2,2 H298 V322 H2,2 z M6,6 H294 V318 H6 z M8,8 H292 V316 H6,8 z "/></g><g id="SvgjsG4382" featureKey="symbolFeature-0" transform="matrix(31.44654257803673,0,0,31.44654257803673,73.96226246048286,36.88679187991261)" fill="#fff"><g xmlns="http://www.w3.org/2000/svg"><g><circle cx="1.033" cy="1.554" r="0.144"/></g><g><circle cx="0.972" cy="2.041" r="0.144"/></g><g><circle cx="1.21" cy="1.131" r="0.144"/></g><g><circle cx="3.04" cy="1.393" r="0.144"/></g><g><circle cx="3.864" cy="1.675" r="0.144"/></g><g><circle cx="3.805" cy="2.256" r="0.144"/></g><g><circle cx="3.438" cy="3.139" r="0.144"/></g><g><circle cx="3.226" cy="0.752" r="0.144"/></g><g><circle cx="3.592" cy="1.195" r="0.144"/></g><g><circle cx="2.271" cy="1.662" r="0.144"/></g><g><circle cx="2.854" cy="0.561" r="0.144"/></g><g><circle cx="1.61" cy="0.752" r="0.144"/></g><g><path d="M1.818,4.254c-0.036,0-0.064-0.028-0.064-0.063V2.419l-0.69-0.744C1.04,1.649,1.041,1.608,1.066,1.584    C1.093,1.56,1.133,1.561,1.157,1.588l0.708,0.763c0.011,0.011,0.017,0.027,0.017,0.042v1.797C1.882,4.227,1.854,4.254,1.818,4.254    z"/></g><g><path d="M2.201,4.583c-0.036,0-0.064-0.029-0.064-0.065V2.149L1.165,1.177c-0.025-0.024-0.025-0.066,0-0.09    c0.025-0.025,0.065-0.025,0.09,0l0.991,0.991C2.258,2.09,2.265,2.106,2.265,2.123v2.395C2.265,4.553,2.236,4.583,2.201,4.583z"/></g><g><path d="M2.628,4.583c-0.036,0-0.064-0.029-0.064-0.065V1.319c0-0.017,0.006-0.034,0.019-0.045l0.481-0.481    c0.025-0.024,0.065-0.024,0.09,0c0.025,0.025,0.025,0.066,0,0.09L2.692,1.346v3.172C2.692,4.553,2.664,4.583,2.628,4.583z"/></g><g><path d="M3.036,4.254C3,4.254,2.971,4.227,2.971,4.191v-1.68c0-0.017,0.008-0.033,0.019-0.044l0.833-0.833    c0.026-0.026,0.066-0.026,0.091,0c0.025,0.024,0.025,0.065,0,0.09L3.1,2.538v1.653C3.1,4.227,3.072,4.254,3.036,4.254z"/></g><g><path d="M3.593,2.019c-0.017,0-0.033-0.005-0.045-0.017L3.019,1.473c-0.025-0.026-0.025-0.066,0-0.091    c0.024-0.025,0.065-0.025,0.091,0L3.638,1.91c0.024,0.026,0.024,0.065,0,0.092C3.625,2.014,3.608,2.019,3.593,2.019z"/></g><g><path d="M1.77,1.727c-0.017,0-0.033-0.006-0.046-0.019c-0.025-0.027-0.025-0.066,0-0.092l1.092-1.092    c0.025-0.026,0.066-0.026,0.091,0c0.025,0.025,0.025,0.065,0,0.09L1.815,1.708C1.802,1.72,1.786,1.727,1.77,1.727z"/></g><g><path d="M2.126,1.369c-0.016,0-0.032-0.006-0.044-0.019L1.634,0.902c-0.025-0.024-0.025-0.066,0-0.09    c0.024-0.024,0.065-0.024,0.09,0L2.172,1.26c0.024,0.024,0.024,0.066,0,0.09C2.159,1.363,2.143,1.369,2.126,1.369z"/></g><g><circle cx="2.129" cy="0.587" r="0.144"/></g><g><path d="M2.469,1.026c-0.016,0-0.032-0.006-0.045-0.019L2.153,0.736c-0.025-0.024-0.025-0.064,0-0.089    c0.025-0.025,0.066-0.025,0.091,0l0.271,0.271c0.025,0.024,0.025,0.066,0,0.09C2.502,1.02,2.485,1.026,2.469,1.026z"/></g><g><path d="M2.62,2.07c-0.017,0-0.033-0.006-0.045-0.02L2.271,1.747c-0.025-0.024-0.025-0.064,0-0.089    c0.024-0.025,0.065-0.025,0.091,0l0.303,0.304c0.025,0.024,0.025,0.065,0,0.089C2.652,2.064,2.636,2.07,2.62,2.07z"/></g><g><circle cx="3.031" cy="1.966" r="0.144"/></g><g><path d="M3.301,2.296c-0.016,0-0.033-0.007-0.045-0.02L3.031,2.052c-0.025-0.026-0.025-0.065,0-0.091    c0.025-0.025,0.066-0.025,0.091,0l0.225,0.224c0.026,0.026,0.026,0.066,0,0.091C3.334,2.289,3.318,2.296,3.301,2.296z"/></g><g><path d="M3.219,1.647c-0.017,0-0.033-0.006-0.045-0.02c-0.025-0.024-0.025-0.065,0-0.091L3.521,1.19    c0.026-0.026,0.066-0.026,0.091,0c0.025,0.025,0.025,0.065,0,0.09L3.265,1.627C3.252,1.641,3.235,1.647,3.219,1.647z"/></g><g><path d="M1.817,2.951c-0.016,0-0.032-0.006-0.045-0.019L0.926,2.085c-0.025-0.024-0.025-0.064,0-0.089    c0.025-0.025,0.065-0.025,0.091,0l0.846,0.846c0.025,0.024,0.025,0.066,0,0.09C1.851,2.945,1.834,2.951,1.817,2.951z"/></g><g><circle cx="1.235" cy="2.86" r="0.144"/></g><g><path d="M1.816,3.505c-0.017,0-0.033-0.007-0.046-0.02L1.189,2.905c-0.025-0.025-0.025-0.066,0-0.09    c0.025-0.026,0.065-0.026,0.091,0l0.58,0.58c0.025,0.024,0.025,0.066,0,0.091C1.848,3.498,1.832,3.505,1.816,3.505z"/></g><g><path d="M3.043,3.1c-0.017,0-0.033-0.006-0.046-0.019c-0.024-0.025-0.024-0.066,0-0.09L3.72,2.269    c0.024-0.026,0.065-0.026,0.09,0c0.024,0.024,0.024,0.064,0,0.09L3.088,3.082C3.076,3.094,3.059,3.1,3.043,3.1z"/></g><g><path d="M3.036,3.605c-0.016,0-0.033-0.005-0.045-0.018c-0.025-0.026-0.025-0.065,0-0.091l0.403-0.403    c0.024-0.024,0.065-0.024,0.091,0c0.024,0.026,0.024,0.066,0,0.092L3.082,3.587C3.069,3.601,3.052,3.605,3.036,3.605z"/></g></g></g><g id="SvgjsG4383" featureKey="nameFeature-0" transform="matrix(0.9706381802370655,0,0,0.9706381802370655,49.45644406311666,178.9859294786989)" fill="#fff"><path d="M9.2 22.72 l5.76 0 l0 5.76 l-2.88 0 l0 -2.88 l-2.88 0 l0 11.52 l1.44 0 l0 2.88 l-1.44 0 l-2.88 0 l-1.44 0 l0 -2.88 l1.44 0 l0 -11.52 l-2.88 0 l0 2.88 l-2.88 0 l0 -5.76 l5.76 0 l2.88 0 z M33.813 27.04 l-2.88 0 l0 -1.44 l-5.76 0 l0 4.32 l4.32 0 l0 2.88 l-4.32 0 l0 4.32 l5.76 0 l0 -1.44 l2.88 0 l0 4.32 l-8.64 0 l-2.88 0 l-1.48 0 l0 -2.88 l1.48 0 l0 -11.52 l-1.48 0 l0 -2.88 l1.48 0 l2.88 0 l8.64 0 l0 4.32 z M47.546 40 c-2.32 0 -4.48 -0.92 -6.12 -2.56 c-1.64 -1.6 -2.52 -3.76 -2.52 -6.08 s0.88 -4.48 2.52 -6.08 c1.64 -1.64 3.8 -2.52 6.12 -2.52 c1.88 0 3.64 0.56 5.16 1.68 l0.56 0.44 l0 3.6 l-2.88 0 l0 -2.12 c-0.84 -0.48 -1.84 -0.72 -2.84 -0.72 c-3.2 0 -5.76 2.56 -5.76 5.72 s2.56 5.76 5.76 5.76 c1 0 2 -0.28 2.84 -0.76 l0 -2.12 l2.88 0 l0 3.6 l-0.56 0.44 c-1.52 1.12 -3.28 1.72 -5.16 1.72 z M72.319 29.92 l0 2.88 l0 4.32 l1.44 0 l0 2.88 l-1.44 0 l-2.88 0 l-1.44 0 l0 -2.88 l1.44 0 l0 -4.32 l-5.76 0 l0 4.32 l1.44 0 l0 2.88 l-1.44 0 l-2.88 0 l-1.44 0 l0 -2.88 l1.44 0 l0 -11.52 l-1.44 0 l0 -2.88 l1.44 0 l2.88 0 l1.44 0 l0 2.88 l-1.44 0 l0 4.32 l5.76 0 l0 -4.32 l-1.44 0 l0 -2.88 l1.44 0 l2.88 0 l1.44 0 l0 2.88 l-1.44 0 l0 4.32 z M90.13199999999999 35.64 l2.88 0 l0 4.32 l-8.64 0 l-2.88 0 l-1.48 0 l0 -2.88 l1.48 0 l0 -11.52 l-1.48 0 l0 -2.88 l1.48 0 l2.88 0 l1.44 0 l0 2.88 l-1.44 0 l0 11.52 l5.76 0 l0 -1.44 z M104.345 25.6 l-1.44 0 l0 11.52 l1.44 0 l0 2.88 l-1.44 0 l-2.88 0 l-1.44 0 l0 -2.88 l1.44 0 l0 -11.52 l-1.44 0 l0 -2.88 l1.44 0 l2.88 0 l1.44 0 l0 2.88 z M122.518 31 c1.16 0.88 1.8 2.28 1.8 3.96 c0 2 -0.92 3.6 -2.56 4.44 c-1.16 0.6 -2.28 0.6 -2.4 0.6 l-4.44 0 l-2.88 0 l-1.48 0 l0 -2.88 l1.48 0 l0 -11.52 l-1.48 0 l0 -2.88 l1.48 0 l2.88 0 l3.68 0 c0.12 0 1.24 0 2.4 0.6 c1.64 0.84 2.56 2.4 2.56 4.4 c0 1.56 -0.52 2.6 -1.04 3.28 z M118.598 25.6 l-3.68 0 l0 4.32 l3.68 0 c0.04 0 0.64 0 1.16 -0.32 c0.4 -0.2 0.92 -0.64 0.92 -1.88 c0 -1.16 -0.52 -1.6 -0.92 -1.8 c-0.52 -0.28 -1.12 -0.32 -1.16 -0.32 z M120.518 36.8 c0.4 -0.24 0.92 -0.64 0.92 -1.84 s-0.52 -1.6 -0.92 -1.84 c-0.52 -0.28 -1.12 -0.32 -1.16 -0.32 l-4.44 0 l0 4.32 l4.44 0 c0.04 0 0.64 -0.04 1.16 -0.32 z M143.33100000000002 27.04 l-2.88 0 l0 -1.44 l-5.76 0 l0 4.32 l4.32 0 l0 2.88 l-4.32 0 l0 4.32 l5.76 0 l0 -1.44 l2.88 0 l0 4.32 l-8.64 0 l-2.88 0 l-1.48 0 l0 -2.88 l1.48 0 l0 -11.52 l-1.48 0 l0 -2.88 l1.48 0 l2.88 0 l8.64 0 l0 4.32 z M161.78400000000002 37.12 l2.2 0 l0 2.88 l-7.2 0 l0 -2.88 l1.32 0 l-4.2 -5.24 l0 5.24 l1.44 0 l0 2.88 l-1.44 0 l-2.88 0 l-1.44 0 l0 -2.88 l1.44 0 l0 -11.52 l-1.44 0 l0 -2.88 l1.44 0 l2.88 0 l3.68 0 c0.12 0 1.28 0 2.44 0.6 c1.64 0.84 2.52 2.4 2.52 4.4 c0 1.04 -0.24 2.52 -1.36 3.64 c-0.96 0.96 -2.12 1.28 -2.88 1.4 z M153.90400000000002 29.92 l3.72 0 c0.04 0 0.6 0 1.16 -0.32 c0.36 -0.2 0.88 -0.64 0.88 -1.88 c0 -0.64 -0.08 -1.4 -0.96 -1.84 c-0.52 -0.24 -1.12 -0.28 -1.12 -0.28 l-3.68 0 l0 4.32 z M178.197 22.72 l5.76 0 l0 5.76 l-2.88 0 l0 -2.88 l-2.88 0 l0 11.52 l1.44 0 l0 2.88 l-1.44 0 l-2.88 0 l-1.44 0 l0 -2.88 l1.44 0 l0 -11.52 l-2.88 0 l0 2.88 l-2.88 0 l0 -5.76 l5.76 0 l2.88 0 z M204.49 25.6 l-5.08 7.64 l0 3.88 l1.44 0 l0 2.88 l-5.76 0 l0 -2.88 l1.44 0 l0 -3.88 l-5.08 -7.64 l-2.12 0 l0 -2.88 l7.2 0 l0 2.88 l-1.6 0 l3.04 4.6 l3.04 -4.6 l-1.64 0 l0 -2.88 l7.24 0 l0 2.88 l-2.12 0 z"/></g><g id="SvgjsG4384" featureKey="sloganFeature-0" transform="matrix(1.4755790717964596,0,0,1.4755790717964596,49.38025738087867,221.26693591511636)" fill="#fff"><path d="M3.3 12.8 c-0.7 0 -1.44 0.3 -1.44 1.1 c0 0.38 0.08 0.64 0.24 0.8 c0.26 0.28 0.84 0.28 1.2 0.26 c0.48 0 1.52 0 2.22 0.68 c0.44 0.44 0.66 1.06 0.66 1.84 c0 0.74 -0.3 1.4 -0.86 1.86 c-0.52 0.44 -1.22 0.66 -2.02 0.66 c-0.52 0 -1.02 -0.1 -1.44 -0.28 l0 0.28 l-1.44 0 l0 -2.16 l0 0 l1.44 0 l0 0 c0 0.08 0.06 0.18 0.16 0.28 s0.5 0.44 1.28 0.44 c0.46 0 0.84 -0.12 1.1 -0.32 c0.22 -0.2 0.34 -0.44 0.34 -0.76 c0 -0.38 -0.08 -0.66 -0.24 -0.8 c-0.28 -0.28 -0.84 -0.28 -1.2 -0.28 l0 0 c-0.54 0.02 -1.54 0.02 -2.22 -0.68 c-0.44 -0.44 -0.66 -1.04 -0.66 -1.82 c0 -1.5 1.18 -2.54 2.88 -2.54 c0.52 0 1 0.1 1.44 0.28 l0 -0.28 l1.44 0 l0 2.16 l-1.44 0 c0 -0.24 -0.5 -0.72 -1.44 -0.72 z M11.24 20 c-1.16 0 -2.24 -0.44 -3.06 -1.26 s-1.26 -1.9 -1.26 -3.06 s0.44 -2.24 1.26 -3.06 c0.82 -0.8 1.9 -1.26 3.06 -1.26 s2.24 0.46 3.06 1.26 c0.8 0.82 1.26 1.9 1.26 3.06 s-0.46 2.24 -1.26 3.06 c-0.82 0.82 -1.9 1.26 -3.06 1.26 z M11.24 12.8 c-1.58 0 -2.88 1.3 -2.88 2.88 s1.3 2.88 2.88 2.88 s2.88 -1.3 2.88 -2.88 s-1.3 -2.88 -2.88 -2.88 z M18.54 11.34 l4.32 0 l0 2.16 l-1.44 0 l0 -0.72 l-2.88 0 l0 2.16 l2.16 0 l0 1.44 l-2.16 0 l0 2.16 l0.72 0 l0 1.44 l-0.72 0 l-1.44 0 l-0.74 0 l0 -1.44 l0.74 0 l0 -5.76 l-0.74 0 l0 -1.44 l0.74 0 l1.44 0 z M27.6 11.36 l2.88 0 l0 2.88 l-1.44 0 l0 -1.44 l-1.44 0 l0 5.76 l0.72 0 l0 1.44 l-0.72 0 l-1.44 0 l-0.72 0 l0 -1.44 l0.72 0 l0 -5.76 l-1.44 0 l0 1.44 l-1.44 0 l0 -2.88 l2.88 0 l1.44 0 z M39.72 11.36 l2.9 0 l0 1.44 l-0.9 0 l-1.76 7.2 l-1.84 0 l-1.26 -5.04 l-1.26 5.04 l-1.84 0 l-1.78 -7.2 l-0.9 0 l0 -1.44 l2.9 0 l0 1.44 l-0.52 0 l1.22 4.94 l1.6 -6.38 l1.16 0 l1.6 6.38 l1.2 -4.94 l-0.52 0 l0 -1.44 z M49.16 18.56 l0.72 0 l0 1.44 l-2.16 0 l0 -2.88 l-2.88 0 l0 2.88 l-2.18 0 l0 -1.44 l0.74 0 l0 -4.32 c0 -0.08 0 -0.72 0.34 -1.4 c0.48 -0.96 1.38 -1.48 2.54 -1.48 s2.06 0.52 2.54 1.48 c0.32 0.68 0.34 1.32 0.34 1.4 l0 4.32 z M44.839999999999996 15.68 l2.88 0 l0 -1.44 c0 -0.02 -0.02 -0.42 -0.22 -0.8 c-0.22 -0.44 -0.62 -0.64 -1.22 -0.64 s-1 0.2 -1.22 0.64 c-0.2 0.38 -0.22 0.78 -0.22 0.8 l0 1.44 z M56.779999999999994 18.56 l1.1 0 l0 1.44 l-3.6 0 l0 -1.44 l0.66 0 l-2.1 -2.62 l0 2.62 l0.72 0 l0 1.44 l-0.72 0 l-1.44 0 l-0.72 0 l0 -1.44 l0.72 0 l0 -5.76 l-0.72 0 l0 -1.44 l0.72 0 l1.44 0 l1.84 0 c0.06 0 0.64 0 1.22 0.3 c0.82 0.42 1.26 1.2 1.26 2.2 c0 0.52 -0.12 1.26 -0.68 1.82 c-0.48 0.48 -1.06 0.64 -1.44 0.7 z M52.839999999999996 14.96 l1.86 0 c0.02 0 0.3 0 0.58 -0.16 c0.18 -0.1 0.44 -0.32 0.44 -0.94 c0 -0.32 -0.04 -0.7 -0.48 -0.92 c-0.26 -0.12 -0.56 -0.14 -0.56 -0.14 l-1.84 0 l0 2.16 z M65.2 13.52 l-1.44 0 l0 -0.72 l-2.88 0 l0 2.16 l2.16 0 l0 1.44 l-2.16 0 l0 2.16 l2.88 0 l0 -0.72 l1.44 0 l0 2.16 l-4.32 0 l-1.44 0 l-0.74 0 l0 -1.44 l0.74 0 l0 -5.76 l-0.74 0 l0 -1.44 l0.74 0 l1.44 0 l4.32 0 l0 2.16 z M72.39999999999999 12.8 c-0.7 0 -1.44 0.3 -1.44 1.1 c0 0.38 0.08 0.64 0.24 0.8 c0.26 0.28 0.84 0.28 1.2 0.26 c0.48 0 1.52 0 2.22 0.68 c0.44 0.44 0.66 1.06 0.66 1.84 c0 0.74 -0.3 1.4 -0.86 1.86 c-0.52 0.44 -1.22 0.66 -2.02 0.66 c-0.52 0 -1.02 -0.1 -1.44 -0.28 l0 0.28 l-1.44 0 l0 -2.16 l0 0 l1.44 0 l0 0 c0 0.08 0.06 0.18 0.16 0.28 s0.5 0.44 1.28 0.44 c0.46 0 0.84 -0.12 1.1 -0.32 c0.22 -0.2 0.34 -0.44 0.34 -0.76 c0 -0.38 -0.08 -0.66 -0.24 -0.8 c-0.28 -0.28 -0.84 -0.28 -1.2 -0.28 l0 0 c-0.54 0.02 -1.54 0.02 -2.22 -0.68 c-0.44 -0.44 -0.66 -1.04 -0.66 -1.82 c0 -1.5 1.18 -2.54 2.88 -2.54 c0.52 0 1 0.1 1.44 0.28 l0 -0.28 l1.44 0 l0 2.16 l-1.44 0 c0 -0.24 -0.5 -0.72 -1.44 -0.72 z M80.33999999999999 20 c-1.16 0 -2.24 -0.44 -3.06 -1.26 s-1.26 -1.9 -1.26 -3.06 s0.44 -2.24 1.26 -3.06 c0.82 -0.8 1.9 -1.26 3.06 -1.26 s2.24 0.46 3.06 1.26 c0.8 0.82 1.26 1.9 1.26 3.06 s-0.46 2.24 -1.26 3.06 c-0.82 0.82 -1.9 1.26 -3.06 1.26 z M80.33999999999999 12.8 c-1.58 0 -2.88 1.3 -2.88 2.88 s1.3 2.88 2.88 2.88 s2.88 -1.3 2.88 -2.88 s-1.3 -2.88 -2.88 -2.88 z M90.52 17.82 l1.44 0 l0 2.16 l-4.32 0 l-1.44 0 l-0.74 0 l0 -1.44 l0.74 0 l0 -5.76 l-0.74 0 l0 -1.44 l0.74 0 l1.44 0 l0.72 0 l0 1.44 l-0.72 0 l0 5.76 l2.88 0 l0 -0.72 z M99.64 11.36 l0 1.44 l-0.74 0 l0 4.32 c0 0.08 -0.02 0.74 -0.34 1.4 c-0.48 0.96 -1.38 1.48 -2.54 1.48 s-2.06 -0.52 -2.54 -1.48 c-0.34 -0.66 -0.34 -1.32 -0.34 -1.4 l0 -4.32 l-0.72 0 l0 -1.44 l2.9 0 l0 1.44 l-0.74 0 l0 4.32 c0 0.02 0.02 0.42 0.22 0.8 c0.22 0.44 0.62 0.64 1.22 0.64 s1 -0.2 1.22 -0.64 c0.2 -0.38 0.22 -0.78 0.22 -0.8 l0 -4.32 l-0.7 0 l0 -1.44 l2.88 0 z M104.55999999999999 11.36 l2.88 0 l0 2.88 l-1.44 0 l0 -1.44 l-1.44 0 l0 5.76 l0.72 0 l0 1.44 l-0.72 0 l-1.44 0 l-0.72 0 l0 -1.44 l0.72 0 l0 -5.76 l-1.44 0 l0 1.44 l-1.44 0 l0 -2.88 l2.88 0 l1.44 0 z M111.08 12.8 l-0.72 0 l0 5.76 l0.72 0 l0 1.44 l-0.72 0 l-1.44 0 l-0.72 0 l0 -1.44 l0.72 0 l0 -5.76 l-0.72 0 l0 -1.44 l0.72 0 l1.44 0 l0.72 0 l0 1.44 z M115.79999999999998 20 c-1.16 0 -2.24 -0.44 -3.06 -1.26 s-1.26 -1.9 -1.26 -3.06 s0.44 -2.24 1.26 -3.06 c0.82 -0.8 1.9 -1.26 3.06 -1.26 s2.24 0.46 3.06 1.26 c0.8 0.82 1.26 1.9 1.26 3.06 s-0.46 2.24 -1.26 3.06 c-0.82 0.82 -1.9 1.26 -3.06 1.26 z M115.79999999999998 12.8 c-1.58 0 -2.88 1.3 -2.88 2.88 s1.3 2.88 2.88 2.88 s2.88 -1.3 2.88 -2.88 s-1.3 -2.88 -2.88 -2.88 z M129.35999999999999 11.36 l0 1.44 l-0.72 0 l0 7.2 l-1.84 0 l-3.92 -6.52 l0 5.08 l0.72 0 l0 1.44 l-0.72 0 l-1.44 0 l-0.72 0 l0 -1.44 l0.72 0 l0 -5.76 l-0.72 0 l0 -1.44 l0.72 0 l1.44 0 l0.42 0 l3.9 6.52 l0 -5.08 l-0.72 0 l0 -1.44 l2.88 0 z M133.07999999999998 12.8 c-0.7 0 -1.44 0.3 -1.44 1.1 c0 0.38 0.08 0.64 0.24 0.8 c0.26 0.28 0.84 0.28 1.2 0.26 c0.48 0 1.52 0 2.22 0.68 c0.44 0.44 0.66 1.06 0.66 1.84 c0 0.74 -0.3 1.4 -0.86 1.86 c-0.52 0.44 -1.22 0.66 -2.02 0.66 c-0.52 0 -1.02 -0.1 -1.44 -0.28 l0 0.28 l-1.44 0 l0 -2.16 l0 0 l1.44 0 l0 0 c0 0.08 0.06 0.18 0.16 0.28 s0.5 0.44 1.28 0.44 c0.46 0 0.84 -0.12 1.1 -0.32 c0.22 -0.2 0.34 -0.44 0.34 -0.76 c0 -0.38 -0.08 -0.66 -0.24 -0.8 c-0.28 -0.28 -0.84 -0.28 -1.2 -0.28 l0 0 c-0.54 0.02 -1.54 0.02 -2.22 -0.68 c-0.44 -0.44 -0.66 -1.04 -0.66 -1.82 c0 -1.5 1.18 -2.54 2.88 -2.54 c0.52 0 1 0.1 1.44 0.28 l0 -0.28 l1.44 0 l0 2.16 l-1.44 0 c0 -0.24 -0.5 -0.72 -1.44 -0.72 z"/></g><g id="SvgjsG4385" featureKey="sloganFeature-1" transform="matrix(1.4755790717964596,0,0,1.4755790717964596,75.58683825391911,244.2669359151164)" fill="#fff"><path d="M4.6 11.36 l2.88 0 l0 2.88 l-1.44 0 l0 -1.44 l-1.44 0 l0 5.76 l0.72 0 l0 1.44 l-0.72 0 l-1.44 0 l-0.72 0 l0 -1.44 l0.72 0 l0 -5.76 l-1.44 0 l0 1.44 l-1.44 0 l0 -2.88 l2.88 0 l1.44 0 z M14.74 13.52 l-1.44 0 l0 -0.72 l-2.88 0 l0 2.16 l2.16 0 l0 1.44 l-2.16 0 l0 2.16 l2.88 0 l0 -0.72 l1.44 0 l0 2.16 l-4.32 0 l-1.44 0 l-0.74 0 l0 -1.44 l0.74 0 l0 -5.76 l-0.74 0 l0 -1.44 l0.74 0 l1.44 0 l4.32 0 l0 2.16 z M19.439999999999998 20 c-1.16 0 -2.24 -0.46 -3.06 -1.28 c-0.82 -0.8 -1.26 -1.88 -1.26 -3.04 s0.44 -2.24 1.26 -3.04 c0.82 -0.82 1.9 -1.26 3.06 -1.26 c0.94 0 1.82 0.28 2.58 0.84 l0.28 0.22 l0 1.8 l-1.44 0 l0 -1.06 c-0.42 -0.24 -0.92 -0.36 -1.42 -0.36 c-1.6 0 -2.88 1.28 -2.88 2.86 s1.28 2.88 2.88 2.88 c0.5 0 1 -0.14 1.42 -0.38 l0 -1.06 l1.44 0 l0 1.8 l-0.28 0.22 c-0.76 0.56 -1.64 0.86 -2.58 0.86 z M29.66 14.96 l0 1.44 l0 2.16 l0.72 0 l0 1.44 l-0.72 0 l-1.44 0 l-0.72 0 l0 -1.44 l0.72 0 l0 -2.16 l-2.88 0 l0 2.16 l0.72 0 l0 1.44 l-0.72 0 l-1.44 0 l-0.72 0 l0 -1.44 l0.72 0 l0 -5.76 l-0.72 0 l0 -1.44 l0.72 0 l1.44 0 l0.72 0 l0 1.44 l-0.72 0 l0 2.16 l2.88 0 l0 -2.16 l-0.72 0 l0 -1.44 l0.72 0 l1.44 0 l0.72 0 l0 1.44 l-0.72 0 l0 2.16 z M36.4 17.82 l1.44 0 l0 2.16 l-4.32 0 l-1.44 0 l-0.74 0 l0 -1.44 l0.74 0 l0 -5.76 l-0.74 0 l0 -1.44 l0.74 0 l1.44 0 l0.72 0 l0 1.44 l-0.72 0 l0 5.76 l2.88 0 l0 -0.72 z M41.339999999999996 12.8 l-0.72 0 l0 5.76 l0.72 0 l0 1.44 l-0.72 0 l-1.44 0 l-0.72 0 l0 -1.44 l0.72 0 l0 -5.76 l-0.72 0 l0 -1.44 l0.72 0 l1.44 0 l0.72 0 l0 1.44 z M48.26 15.5 c0.58 0.44 0.9 1.14 0.9 1.98 c0 1 -0.46 1.8 -1.28 2.22 c-0.58 0.3 -1.14 0.3 -1.2 0.3 l-2.22 0 l-1.44 0 l-0.74 0 l0 -1.44 l0.74 0 l0 -5.76 l-0.74 0 l0 -1.44 l0.74 0 l1.44 0 l1.84 0 c0.06 0 0.62 0 1.2 0.3 c0.82 0.42 1.28 1.2 1.28 2.2 c0 0.78 -0.26 1.3 -0.52 1.64 z M46.3 12.8 l-1.84 0 l0 2.16 l1.84 0 c0.02 0 0.32 0 0.58 -0.16 c0.2 -0.1 0.46 -0.32 0.46 -0.94 c0 -0.58 -0.26 -0.8 -0.46 -0.9 c-0.26 -0.14 -0.56 -0.16 -0.58 -0.16 z M47.26 18.4 c0.2 -0.12 0.46 -0.32 0.46 -0.92 s-0.26 -0.8 -0.46 -0.92 c-0.26 -0.14 -0.56 -0.16 -0.58 -0.16 l-2.22 0 l0 2.16 l2.22 0 c0.02 0 0.32 -0.02 0.58 -0.16 z M56.5 13.52 l-1.44 0 l0 -0.72 l-2.88 0 l0 2.16 l2.16 0 l0 1.44 l-2.16 0 l0 2.16 l2.88 0 l0 -0.72 l1.44 0 l0 2.16 l-4.32 0 l-1.44 0 l-0.74 0 l0 -1.44 l0.74 0 l0 -5.76 l-0.74 0 l0 -1.44 l0.74 0 l1.44 0 l4.32 0 l0 2.16 z M63.559999999999995 18.56 l1.1 0 l0 1.44 l-3.6 0 l0 -1.44 l0.66 0 l-2.1 -2.62 l0 2.62 l0.72 0 l0 1.44 l-0.72 0 l-1.44 0 l-0.72 0 l0 -1.44 l0.72 0 l0 -5.76 l-0.72 0 l0 -1.44 l0.72 0 l1.44 0 l1.84 0 c0.06 0 0.64 0 1.22 0.3 c0.82 0.42 1.26 1.2 1.26 2.2 c0 0.52 -0.12 1.26 -0.68 1.82 c-0.48 0.48 -1.06 0.64 -1.44 0.7 z M59.62 14.96 l1.86 0 c0.02 0 0.3 0 0.58 -0.16 c0.18 -0.1 0.44 -0.32 0.44 -0.94 c0 -0.32 -0.04 -0.7 -0.48 -0.92 c-0.26 -0.12 -0.56 -0.14 -0.56 -0.14 l-1.84 0 l0 2.16 z M69.6 11.36 l2.88 0 l0 2.88 l-1.44 0 l0 -1.44 l-1.44 0 l0 5.76 l0.72 0 l0 1.44 l-0.72 0 l-1.44 0 l-0.72 0 l0 -1.44 l0.72 0 l0 -5.76 l-1.44 0 l0 1.44 l-1.44 0 l0 -2.88 l2.88 0 l1.44 0 z M80.58000000000001 12.8 l-2.54 3.82 l0 1.94 l0.72 0 l0 1.44 l-2.88 0 l0 -1.44 l0.72 0 l0 -1.94 l-2.54 -3.82 l-1.06 0 l0 -1.44 l3.6 0 l0 1.44 l-0.8 0 l1.52 2.3 l1.52 -2.3 l-0.82 0 l0 -1.44 l3.62 0 l0 1.44 l-1.06 0 z M83.20000000000002 20 l-1.44 0 l0 -1.44 l1.44 0 l0 1.44 z M88.28000000000002 20 c-1.16 0 -2.24 -0.46 -3.06 -1.28 c-0.82 -0.8 -1.26 -1.88 -1.26 -3.04 s0.44 -2.24 1.26 -3.04 c0.82 -0.82 1.9 -1.26 3.06 -1.26 c0.94 0 1.82 0.28 2.58 0.84 l0.28 0.22 l0 1.8 l-1.44 0 l0 -1.06 c-0.42 -0.24 -0.92 -0.36 -1.42 -0.36 c-1.6 0 -2.88 1.28 -2.88 2.86 s1.28 2.88 2.88 2.88 c0.5 0 1 -0.14 1.42 -0.38 l0 -1.06 l1.44 0 l0 1.8 l-0.28 0.22 c-0.76 0.56 -1.64 0.86 -2.58 0.86 z M96.2 20 c-1.16 0 -2.24 -0.44 -3.06 -1.26 s-1.26 -1.9 -1.26 -3.06 s0.44 -2.24 1.26 -3.06 c0.82 -0.8 1.9 -1.26 3.06 -1.26 s2.24 0.46 3.06 1.26 c0.8 0.82 1.26 1.9 1.26 3.06 s-0.46 2.24 -1.26 3.06 c-0.82 0.82 -1.9 1.26 -3.06 1.26 z M96.2 12.8 c-1.58 0 -2.88 1.3 -2.88 2.88 s1.3 2.88 2.88 2.88 s2.88 -1.3 2.88 -2.88 s-1.3 -2.88 -2.88 -2.88 z"/></g>
			</g>
		</svg>
	